0
SECTION
2
HEADER
9
$INSUNITS
70
4
9
$ACADVER
1
AC1014
9
$HANDSEED
5
FFFF
0
ENDSEC
0
SECTION
2
TABLES
0
TABLE
2
VPORT
5
8
100
AcDbSymbolTable
0
ENDTAB
0
TABLE
2
LTYPE
5
5
100
AcDbSymbolTable
0
LTYPE
5
14
100
AcDbSymbolTableRecord
100
AcDbLinetypeTableRecord
2
BYBLOCK
70
0
0
LTYPE
5
15
100
AcDbSymbolTableRecord
100
AcDbLinetypeTableRecord
2
BYLAYER
70
0
0
ENDTAB
0
TABLE
2
LAYER
5
2
100
AcDbSymbolTable
70
2
0
LAYER
5
50
100
AcDbSymbolTableRecord
100
AcDbLayerTableRecord
2
0
70
0
6
CONTINUOUS
0
ENDTAB
0
TABLE
2
STYLE
5
3
100
AcDbSymbolTable
70
1
0
STYLE
5
11
100
AcDbSymbolTableRecord
100
AcDbTextStyleTableRecord
2
STANDARD
70
0
0
ENDTAB
0
TABLE
2
VIEW
5
6
100
AcDbSymbolTable
70
0
0
ENDTAB
0
TABLE
2
UCS
5
7
100
AcDbSymbolTable
70
0
0
ENDTAB
0
TABLE
2
APPID
5
9
100
AcDbSymbolTable
70
2
0
APPID
5
12
100
AcDbSymbolTableRecord
100
AcDbRegAppTableRecord
2
ACAD
70
0
0
ENDTAB
0
TABLE
2
DIMSTYLE
5
A
100
AcDbSymbolTable
70
1
0
ENDTAB
0
TABLE
2
BLOCK_RECORD
5
1
100
AcDbSymbolTable
70
1
0
BLOCK_RECORD
5
1F
100
AcDbSymbolTableRecord
100
AcDbBlockTableRecord
2
*MODEL_SPACE
0
BLOCK_RECORD
5
1B
100
AcDbSymbolTableRecord
100
AcDbBlockTableRecord
2
*PAPER_SPACE
0
ENDTAB
0
ENDSEC
0
SECTION
2
BLOCKS
0
BLOCK
5
20
100
AcDbEntity
100
AcDbBlockBegin
2
*MODEL_SPACE
0
ENDBLK
5
21
100
AcDbEntity
100
AcDbBlockEnd
0
BLOCK
5
1C
100
AcDbEntity
100
AcDbBlockBegin
2
*PAPER_SPACE
0
ENDBLK
5
1D
100
AcDbEntity
100
AcDbBlockEnd
0
ENDSEC
0
SECTION
2
ENTITIES
0
ARC
5
100
100
AcDbEntity
8
0
100
AcDbCircle
10
-137.50000000000003
20
42.96446609406722
30
0
40
2.4999999999999951
210
0
220
0
230
1
100
AcDbArc
50
134.99999999999886
51
180
0
ARC
5
101
100
AcDbEntity
8
0
100
AcDbCircle
10
94.219544602756088
20
61.000000000000014
30
0
40
11.000000000000014
210
0
220
-0
230
-1
100
AcDbArc
50
230.5994303291622
51
270.00000000000017
0
LINE
5
102
100
AcDbEntity
8
0
100
AcDbLine
10
-5.2677669529663396
20
30.732233047033652
30
0
11
-0.73223304703361691
21
35.267766952966383
31
0
0
ARC
5
103
100
AcDbEntity
8
0
100
AcDbCircle
10
-59.744695713121907
20
35.999999776482539
30
0
40
10.999999999999964
210
-0
220
0
230
1
100
AcDbArc
50
270
51
309.40056967083785
0
LINE
5
104
100
AcDbEntity
8
0
100
AcDbLine
10
-140.00000000000003
20
42.964466094067262
30
0
11
-140.00000000000003
21
37.035533905932716
31
0
0
ARC
5
105
100
AcDbEntity
8
0
100
AcDbCircle
10
-80.255304286878072
20
44.000000223517333
30
0
40
11.000000000000085
210
0
220
0
230
1
100
AcDbArc
50
90.000000000000071
51
129.40056967083748
0
ARC
5
106
100
AcDbEntity
8
0
100
AcDbCircle
10
45.780455397243927
20
61.000000000000028
30
0
40
11.000000000000005
210
0
220
-0
230
-1
100
AcDbArc
50
269.99999999999983
51
309.40056967083757
0
ARC
5
107
100
AcDbEntity
8
0
100
AcDbCircle
10
94.219544602756159
20
18.999999999999758
30
0
40
11.000000000000242
210
0
220
0
230
-1
100
AcDbArc
50
90.000000000000142
51
129.40056967083729
0
LINE
5
108
100
AcDbEntity
8
0
100
AcDbLine
10
-139.26776695296635
20
35.26776695296634
30
0
11
-134.73223304703365
21
30.732233047033624
31
0
0
LINE
5
109
100
AcDbEntity
8
0
100
AcDbLine
10
-59.744695713121907
20
55.000000223517425
30
0
11
-80.255304286878086
21
55.000000223517418
31
0
0
LINE
5
110
100
AcDbEntity
8
0
100
AcDbLine
10
1.6514567491299204e-14
20
37.035533905932738
30
0
11
1.6375789613221059e-14
21
42.964466094067284
31
0
0
ARC
5
111
100
AcDbEntity
8
0
100
AcDbCircle
10
-2.499999999999952
20
42.964466094067291
30
0
40
2.4999999999999685
210
-0
220
0
230
1
100
AcDbArc
50
0
51
45.000000000000284
0
ARC
5
112
100
AcDbEntity
8
0
100
AcDbCircle
10
-2.4999999999999654
20
37.035533905932752
30
0
40
2.4999999999999831
210
-0
220
0
230
1
100
AcDbArc
50
314.99999999999966
51
360
0
ARC
5
113
100
AcDbEntity
8
0
100
AcDbCircle
10
-59.744695713121921
20
44.00000022351734
30
0
40
11.000000000000083
210
0
220
-0
230
1
100
AcDbArc
50
50.599430329162487
51
89.999999999999929
0
ARC
5
114
100
AcDbEntity
8
0
100
AcDbCircle
10
-7.0355339059327111
20
32.5
30
0
40
2.4999999999999867
210
-0
220
0
230
1
100
AcDbArc
50
270.00000000000006
51
315.0000000000004
0
ARC
5
115
100
AcDbEntity
8
0
100
AcDbCircle
10
45.780455397243912
20
18.999999999999975
30
0
40
11.000000000000025
210
0
220
0
230
-1
100
AcDbArc
50
50.599430329162338
51
89.999999999999972
0
LINE
5
116
100
AcDbEntity
8
0
100
AcDbLine
10
-134.73223304703365
20
49.267766952966348
30
0
11
-139.26776695296635
21
44.732233047033617
31
0
0
ARC
5
117
100
AcDbEntity
8
0
100
AcDbCircle
10
-80.25530428687803
20
35.999999776482674
30
0
40
11.000000000000107
210
0
220
0
230
1
100
AcDbArc
50
230.59943032916237
51
269.99999999999972
0
LINE
5
118
100
AcDbEntity
8
0
100
AcDbLine
10
-0.73223304703361458
20
44.732233047033645
30
0
11
-5.2677669529663458
21
49.267766952966383
31
0
0
ARC
5
119
100
AcDbEntity
8
0
100
AcDbCircle
10
-132.96446609406729
20
32.499999999999964
30
0
40
2.499999999999976
210
0
220
0
230
1
100
AcDbArc
50
224.99999999999974
51
270
0
ARC
5
120
100
AcDbEntity
8
0
100
AcDbCircle
10
-137.5
20
37.035533905932766
30
0
40
2.5000000000000355
210
0
220
0
230
1
100
AcDbArc
50
180
51
225.00000000000117
0
ARC
5
121
100
AcDbEntity
8
0
100
AcDbCircle
10
-132.96446609406732
20
47.500000000000135
30
0
40
2.4999999999998668
210
0
220
-0
230
1
100
AcDbArc
50
89.999999999999346
51
135.00000000000185
0
ARC
5
122
100
AcDbEntity
8
0
100
AcDbCircle
10
-7.0355339059327235
20
47.499999999999986
30
0
40
2.5000000000000289
210
0
220
-0
230
1
100
AcDbArc
50
45.000000000000306
51
89.999999999999673
0
LINE
5
123
100
AcDbEntity
8
0
100
AcDbLine
10
-80.255304286878086
20
24.999999776482575
30
0
11
-59.744695713121907
21
24.999999776482575
31
0
0
LWPOLYLINE
5
124
100
AcDbEntity
8
0
100
AcDbPolyline
90
12
70
1
43
0.0
10
-68.299999999999997
20
50.000000149011612
10
-65.299999999999997
20
50.000000149011612
10
-65.299999999999997
20
30
10
-68.299999999999997
20
30
10
-68.299999999999997
20
37.500000149011605
10
-71.700000000000003
20
37.500000149011605
10
-71.700000000000003
20
30
10
-74.700000000000003
20
30
10
-74.700000000000003
20
50.000000149011612
10
-71.700000000000003
20
50.000000149011612
10
-71.700000000000003
20
42.5
10
-68.299999999999997
20
42.5
0
CIRCLE
5
125
100
AcDbEntity
8
0
100
AcDbCircle
10
-135.75000000000003
20
39.999999999999993
30
0
40
1.2500000000000002
210
0
220
0
230
1
0
CIRCLE
5
126
100
AcDbEntity
8
0
100
AcDbCircle
10
-4.2498073719762175
20
40.021943859137906
30
0
40
1.2500000000000002
210
0
220
0
230
1
0
ARC
5
127
100
AcDbEntity
8
0
100
AcDbCircle
10
-58.499999999999986
20
2.499999999999996
30
0
40
1.5000000000000133
210
0
220
0
230
1
100
AcDbArc
50
90.00000000000054
51
180
0
LINE
5
128
100
AcDbEntity
8
0
100
AcDbLine
10
-2.5786444906613157
20
0.7500000000000201
30
0
11
-2.5786444906613157
21
3.2500000000000204
31
0
0
ARC
5
129
100
AcDbEntity
8
0
100
AcDbCircle
10
-58.499999999999986
20
1.5000000000000213
30
0
40
1.5000000000000124
210
0
220
0
230
1
100
AcDbArc
50
180
51
269.99999999999943
0
LINE
5
130
100
AcDbEntity
8
0
100
AcDbLine
10
1.7597034940308731e-14
20
0.75000000000002065
30
0
11
-2.5786444906613157
21
0.7500000000000201
31
0
0
LINE
5
131
100
AcDbEntity
8
0
100
AcDbLine
10
1.7763568394002501e-14
20
2.0206059048177849e-14
30
0
11
1.7597034940308731e-14
21
0.75000000000002065
31
0
0
LINE
5
132
100
AcDbEntity
8
0
100
AcDbLine
10
-2.5786444906613157
20
3.2500000000000204
30
0
11
1.8318679906315083e-14
21
3.2500000000000218
31
0
0
LINE
5
133
100
AcDbEntity
8
0
100
AcDbLine
10
-60
20
2.5000000000000084
30
0
11
-60
21
1.5000000000000071
31
0
0
LINE
5
134
100
AcDbEntity
8
0
100
AcDbLine
10
1.8318679906315083e-14
20
3.2500000000000218
30
0
11
1.7763568394002501e-14
21
4.0000000000000204
31
0
0
LINE
5
135
100
AcDbEntity
8
0
100
AcDbLine
10
-89.999999769708751
20
13.500000149011615
30
0
11
-89.999999769708751
21
6.0000000000000053
31
0
0
LINE
5
136
100
AcDbEntity
8
0
100
AcDbLine
10
2.3029127049767339e-07
20
6.0000000000000231
30
0
11
2.3029126848943769e-07
21
13.500000149011635
31
0
0
LINE
5
137
100
AcDbEntity
8
0
100
AcDbLine
10
-90.000001295587623
20
23.000000149011615
30
0
11
-90.000001295587623
21
15.500000000000007
31
0
0
LINE
5
138
100
AcDbEntity
8
0
100
AcDbLine
10
-1.2955876197527449e-06
20
15.500000000000027
30
0
11
-1.2955876214180794e-06
21
23.00000014901164
31
0
0
LINE
5
139
100
AcDbEntity
8
0
100
AcDbLine
10
-96.21954165399076
20
20.500000000000021
30
0
11
-96.21954165399076
21
28.000000000000025
31
0
0
LINE
5
140
100
AcDbEntity
8
0
100
AcDbLine
10
-190.21954345703125
20
28.000000149011612
30
0
11
-190.21954345703125
21
25.500000000000007
31
0
0
LINE
5
141
100
AcDbEntity
8
0
100
AcDbLine
10
-190.21954345703125
20
25.500000000000007
30
0
11
-193.21954345703125
21
25.500000000000007
31
0
0
LINE
5
142
100
AcDbEntity
8
0
100
AcDbLine
10
-193.21954345703125
20
25.500000000000007
30
0
11
-193.21954345703125
21
20.500000000000004
31
0
0
LINE
5
143
100
AcDbEntity
8
0
100
AcDbLine
10
-91.999999769708708
20
10.999996185302756
30
0
11
-91.999999769708708
21
18.499996334314368
31
0
0
LINE
5
144
100
AcDbEntity
8
0
100
AcDbLine
10
-181.99999976970875
20
18.49999633431435
30
0
11
-181.99999976970875
21
10.999996185302736
31
0
0
LINE
5
145
100
AcDbEntity
8
0
100
AcDbLine
10
-92.000008924982154
20
1.5000000000000213
30
0
11
-92.000008924982154
21
9.000000149011635
31
0
0
LINE
5
146
100
AcDbEntity
8
0
100
AcDbLine
10
-182.00000892498218
20
9.0000001490116137
30
0
11
-182.00000892498218
21
1.5000000000000013
31
0
0
LINE
5
147
100
AcDbEntity
8
0
100
AcDbLine
10
-146.9999969482422
20
45.230621337890618
30
0
11
-146.9999969482422
21
36.730621337890632
31
0
0
LINE
5
148
100
AcDbEntity
8
0
100
AcDbLine
10
-161.39999694824218
20
36.730621337890632
30
0
11
-156.39999694824218
21
36.730621337890632
31
0
0
LINE
5
149
100
AcDbEntity
8
0
100
AcDbLine
10
-161.39999694824215
20
45.230621337890639
30
0
11
-161.39999694824218
21
36.730621337890632
31
0
0
LINE
5
150
100
AcDbEntity
8
0
100
AcDbLine
10
-146.9999969482422
20
36.730621337890632
30
0
11
-141.9999969482422
21
36.730621337890632
31
0
0
ARC
5
151
100
AcDbEntity
8
0
100
AcDbCircle
10
-146.9999969482422
20
45.230621337890646
30
0
40
4.9999999999999822
210
-0
220
0
230
1
100
AcDbArc
50
0
51
89.999999999999346
0
LINE
5
152
100
AcDbEntity
8
0
100
AcDbLine
10
-141.9999969482422
20
36.730621337890632
30
0
11
-141.9999969482422
21
45.230621337890639
31
0
0
LINE
5
153
100
AcDbEntity
8
0
100
AcDbLine
10
-156.39999694824218
20
36.730621337890632
30
0
11
-156.39999694824218
21
45.230621337890653
31
0
0
ARC
5
154
100
AcDbEntity
8
0
100
AcDbCircle
10
-156.39999694824215
20
45.230621337890653
30
0
40
4.9999999999999822
210
0
220
0
230
1
100
AcDbArc
50
90.000000000000327
51
180
0
CIRCLE
5
155
100
AcDbEntity
8
0
100
AcDbCircle
10
-185.00375537574288
20
42.907283782959013
30
0
40
1.7500000000000071
210
0
220
0
230
1
0
ARC
5
156
100
AcDbEntity
8
0
100
AcDbCircle
10
-186.74878785737548
20
55.789630877904116
30
0
40
1.0000000149011583
210
0
220
0
230
1
100
AcDbArc
50
-170.08148678174092
51
5.5100582103127467
0
ARC
5
157
100
AcDbEntity
8
0
100
AcDbCircle
10
185.0037553757434
20
42.907283782955552
30
0
40
13.000000193718588
210
0
220
0
230
-1
100
AcDbArc
50
96.979883579372967
51
101.45041728548267
0
LINE
5
158
100
AcDbEntity
8
0
100
AcDbLine
10
-174.74326803629089
20
40.407283782959013
30
0
11
-175.6703391445015
21
45.407283782959013
31
0
0
ARC
5
159
100
AcDbEntity
8
0
100
AcDbCircle
10
185.00375537588044
20
42.907283782970794
30
0
40
13.000000193577133
210
0
220
0
230
-1
100
AcDbArc
50
4.4084550079389411
51
5.8772592777806087
0
ARC
5
160
100
AcDbEntity
8
0
100
AcDbCircle
10
-179.89442988810703
20
30.95342256166375
30
0
40
1.0000000149011641
210
0
220
-0
230
1
100
AcDbArc
50
25.34708464682733
51
200.93862963888577
0
ARC
5
161
100
AcDbEntity
8
0
100
AcDbCircle
10
185.00375537572396
20
42.907283782985289
30
0
40
13.000000193747475
210
-0
220
0
230
-1
100
AcDbArc
50
302.69416929366639
51
304.16297356348855
0
ARC
5
162
100
AcDbEntity
8
0
100
AcDbCircle
10
185.00375537571952
20
42.907283782887603
30
0
40
13.000000193639957
210
0
220
-0
230
-1
100
AcDbArc
50
251.26559786508346
51
252.73440213491816
0
ARC
5
163
100
AcDbEntity
8
0
100
AcDbCircle
10
185.00375537578486
20
42.907283783036789
30
0
40
13.000000193803476
210
0
220
-0
230
-1
100
AcDbArc
50
240.97988357937712
51
242.44868784919339
0
ARC
5
164
100
AcDbEntity
8
0
100
AcDbCircle
10
185.00375537573547
20
42.90728378299562
30
0
40
13.000000193752443
210
-0
220
0
230
-1
100
AcDbArc
50
282.12274072222766
51
283.5915449920501
0
ARC
5
165
100
AcDbEntity
8
0
100
AcDbCircle
10
-191.16404807968746
20
31.459541698236762
30
0
40
1.0000000149011889
210
-0
220
0
230
1
100
AcDbArc
50
-26.081486781741848
51
149.51005821031296
0
ARC
5
166
100
AcDbEntity
8
0
100
AcDbCircle
10
-184.42051257249523
20
55.894193841516113
30
0
40
1.0000000149011525
210
0
220
0
230
1
100
AcDbArc
50
179.63279893254219
51
355.22434392460127
0
ARC
5
167
100
AcDbEntity
8
0
100
AcDbCircle
10
185.00375537576812
20
42.90728378290094
30
0
40
13.000000193651813
210
-0
220
0
230
-1
100
AcDbArc
50
292.40845500793858
51
293.87725927777228
0
ARC
5
168
100
AcDbEntity
8
0
100
AcDbCircle
10
-184.42051257249523
20
29.920373724401912
30
0
40
1.0000000149011807
210
0
220
-0
230
1
100
AcDbArc
50
4.7756560753984143
51
180.36720106745781
0
ARC
5
169
100
AcDbEntity
8
0
100
AcDbCircle
10
-177.84209451014848
20
32.057831322912619
30
0
40
1.0000000149011461
210
0
220
-0
230
1
100
AcDbArc
50
35.632798932545853
51
211.22434392459877
0
ARC
5
170
100
AcDbEntity
8
0
100
AcDbCircle
10
-196.16358985886166
20
36.239593077325871
30
0
40
1.0000000149011123
210
-0
220
0
230
1
100
AcDbArc
50
-56.938629638885367
51
118.65291535316994
0
ARC
5
171
100
AcDbEntity
8
0
100
AcDbCircle
10
-197.17480887542234
20
38.339411001834918
30
0
40
1.0000000149011461
210
-0
220
0
230
1
100
AcDbArc
50
-67.224343924598628
51
108.36720106745999
0
ARC
5
172
100
AcDbEntity
8
0
100
AcDbCircle
10
-176.0199408050444
20
33.510950413186634
30
0
40
1.000000014901153
210
0
220
-0
230
1
100
AcDbArc
50
45.918513218258568
51
221.51005821031282
0
ARC
5
173
100
AcDbEntity
8
0
100
AcDbCircle
10
185.00375537574371
20
42.907283782966061
30
0
40
13.000000193722192
210
0
220
-0
230
-1
100
AcDbArc
50
261.55131215080252
51
263.02011642062757
0
ARC
5
174
100
AcDbEntity
8
0
100
AcDbCircle
10
185.00375537574328
20
42.907283782948547
30
0
40
13.000000193704626
210
-0
220
0
230
-1
100
AcDbArc
50
271.83702643651549
51
273.30583070634282
0
ARC
5
175
100
AcDbEntity
8
0
100
AcDbCircle
10
-193.10912292068582
20
32.743474359422088
30
0
40
1.0000000149011736
210
-0
220
0
230
1
100
AcDbArc
50
-36.367201067457046
51
139.22434392459974
0
ARC
5
176
100
AcDbEntity
8
0
100
AcDbCircle
10
-182.11098319120515
20
30.233220735737039
30
0
40
1.000000014901161
210
0
220
-0
230
1
100
AcDbArc
50
15.061370361115392
51
190.65291535317033
0
ARC
5
177
100
AcDbEntity
8
0
100
AcDbCircle
10
185.00375537580067
20
42.907283782898219
30
0
40
13.000000193631232
210
-0
220
0
230
-1
100
AcDbArc
50
312.97988357936913
51
314.4486878492047
0
ARC
5
178
100
AcDbEntity
8
0
100
AcDbCircle
10
-186.74878785737545
20
30.024936688013923
30
0
40
1.0000000149011197
210
-0
220
0
230
1
100
AcDbArc
50
-5.5100582103133267
51
170.08148678174146
0
ARC
5
179
100
AcDbEntity
8
0
100
AcDbCircle
10
-189.02097636247848
20
30.54354888688799
30
0
40
1.0000000149011035
210
-0
220
0
230
1
100
AcDbArc
50
-15.795772496027919
51
159.79577249602767
0
ARC
5
180
100
AcDbEntity
8
0
100
AcDbCircle
10
-194.79368457967112
20
34.354080218290072
30
0
40
1.0000000149011394
210
-0
220
0
230
1
100
AcDbArc
50
-46.652915353171544
51
128.93862963888486
0
ARC
5
181
100
AcDbEntity
8
0
100
AcDbCircle
10
185.00375537570284
20
42.907283782990717
30
0
40
13.000000193766128
210
-0
220
0
230
-1
100
AcDbArc
50
323.26559786508028
51
324.73440213490102
0
ARC
5
182
100
AcDbEntity
8
0
100
AcDbCircle
10
185.00375537569903
20
42.907283782981168
30
0
40
13.000000193764263
210
-0
220
0
230
-1
100
AcDbArc
50
333.55131215079962
51
335.02011642062047
0
ARC
5
183
100
AcDbEntity
8
0
100
AcDbCircle
10
185.00375537579473
20
42.907283783038359
30
0
40
13.000000193620348
210
0
220
0
230
-1
100
AcDbArc
50
55.83702643650733
51
57.305830706344778
0
ARC
5
184
100
AcDbEntity
8
0
100
AcDbCircle
10
185.00375537573379
20
42.907283782947658
30
0
40
13.000000193700528
210
0
220
-0
230
-1
100
AcDbArc
50
230.69416929365772
51
232.16297356348562
0
ARC
5
185
100
AcDbEntity
8
0
100
AcDbCircle
10
185.00375537574311
20
42.907283782958949
30
0
40
13.000000193715254
210
0
220
0
230
-1
100
AcDbArc
50
168.91251095633939
51
201.30583070634111
0
ARC
5
186
100
AcDbEntity
8
0
100
AcDbCircle
10
185.00375537574354
20
42.907283782959382
30
0
40
13.000000193714609
210
0
220
0
230
-1
100
AcDbArc
50
76.408455007946131
51
77.877259277772438
0
ARC
5
187
100
AcDbEntity
8
0
100
AcDbCircle
10
-174.48653429214983
20
35.266075389293967
30
0
40
1.0000000149012047
210
0
220
-0
230
1
100
AcDbArc
50
56.204227503969861
51
231.79577249602727
0
LINE
5
188
100
AcDbEntity
8
0
100
AcDbLine
10
-175.6703391445015
20
45.407283782959013
30
0
11
-172.24640435617027
21
45.407283782959013
31
0
0
ARC
5
189
100
AcDbEntity
8
0
100
AcDbCircle
10
-198.00375556945809
20
42.90728378295902
30
0
40
1.0000000149011705
210
-0
220
0
230
1
100
AcDbArc
50
-87.795772496027368
51
87.795772496027368
0
ARC
5
190
100
AcDbEntity
8
0
100
AcDbCircle
10
185.0037553758207
20
42.907283783006271
30
0
40
13.000000193806127
210
0
220
-0
230
-1
100
AcDbArc
50
210.12274072223801
51
211.59154499205371
0
ARC
5
191
100
AcDbEntity
8
0
100
AcDbCircle
10
-197.79484021812715
20
45.228523449930449
30
0
40
1.0000000149011603
210
0
220
0
230
1
100
AcDbArc
50
-98.081486781742811
51
77.510058210313602
0
LINE
5
192
100
AcDbEntity
8
0
100
AcDbLine
10
-182.42299727373489
20
40.40728378295897
30
0
11
-174.74326803629089
21
40.407283782959013
31
0
0
ARC
5
193
100
AcDbEntity
8
0
100
AcDbCircle
10
185.00375537567024
20
42.907283782922207
30
0
40
13.000000193796522
210
0
220
0
230
-1
100
AcDbArc
50
24.979883579384332
51
26.448687849201438
0
ARC
5
194
100
AcDbEntity
8
0
100
AcDbCircle
10
185.00375537563042
20
42.907283782988898
30
0
40
13.000000193831555
210
-0
220
0
230
-1
100
AcDbArc
50
343.83702643652686
51
345.30583070634015
0
ARC
5
195
100
AcDbEntity
8
0
100
AcDbCircle
10
-197.79484021812718
20
40.58604411598759
30
0
40
1.000000014901171
210
-0
220
0
230
1
100
AcDbArc
50
-77.510058210313687
51
98.08148678174102
0
ARC
5
196
100
AcDbEntity
8
0
100
AcDbCircle
10
-196.16358985886163
20
49.57497448859214
30
0
40
1.0000000149011816
210
0
220
0
230
1
100
AcDbArc
50
-118.65291535316982
51
56.938629638885764
0
ARC
5
197
100
AcDbEntity
8
0
100
AcDbCircle
10
185.00375537574308
20
42.907283782955631
30
0
40
13.000000193718472
210
0
220
0
230
-1
100
AcDbArc
50
86.694169293659812
51
88.162973563485707
0
ARC
5
198
100
AcDbEntity
8
0
100
AcDbCircle
10
-193.10912292068593
20
53.071093206495938
30
0
40
1.0000000149010866
210
0
220
0
230
1
100
AcDbArc
50
-139.22434392459778
51
36.367201067455376
0
ARC
5
199
100
AcDbEntity
8
0
100
AcDbCircle
10
185.00375537572205
20
42.907283782936148
30
0
40
13.000000193746079
210
0
220
0
230
-1
100
AcDbArc
50
45.551312150806041
51
47.02011642062876
0
ARC
5
200
100
AcDbEntity
8
0
100
AcDbCircle
10
185.00375537572128
20
42.907283782942393
30
0
40
13.000000193742336
210
0
220
0
230
-1
100
AcDbArc
50
35.265597865091905
51
36.734402134914887
0
ARC
5
201
100
AcDbEntity
8
0
100
AcDbCircle
10
185.00375537584921
20
42.907283782990291
30
0
40
13.000000193604354
210
0
220
0
230
-1
100
AcDbArc
50
14.694169293643791
51
16.162973563482456
0
ARC
5
202
100
AcDbEntity
8
0
100
AcDbCircle
10
-191.1640480796874
20
54.355025867681235
30
0
40
1.0000000149011699
210
0
220
0
230
1
100
AcDbArc
50
-149.51005821031589
51
26.081486781744207
0
ARC
5
203
100
AcDbEntity
8
0
100
AcDbCircle
10
185.00375537570281
20
42.907283782866173
30
0
40
13.000000193816227
210
0
220
0
230
-1
100
AcDbArc
50
66.122740722233701
51
67.591544992048469
0
ARC
5
204
100
AcDbEntity
8
0
100
AcDbCircle
10
-189.02097636247851
20
55.271018679030021
30
0
40
1.0000000149011359
210
0
220
0
230
1
100
AcDbArc
50
-159.79577249602846
51
15.79577249602845
0
ARC
5
205
100
AcDbEntity
8
0
100
AcDbCircle
10
185.00375537586496
20
42.90728378294861
30
0
40
13.000000193592678
210
-0
220
0
230
-1
100
AcDbArc
50
354.1227407222205
51
355.59154499206028
0
ARC
5
206
100
AcDbEntity
8
0
100
AcDbCircle
10
-173.29115991848016
20
37.266795090380889
30
0
40
1.0000000149011683
210
0
220
-0
230
1
100
AcDbArc
50
66.489941789689126
51
242.08148678174229
0
ARC
5
207
100
AcDbEntity
8
0
100
AcDbCircle
10
-197.17480887542237
20
47.475156564083072
30
0
40
1.0000000149011616
210
0
220
0
230
1
100
AcDbArc
50
-108.36720106745807
51
67.224343924597264
0
ARC
5
208
100
AcDbEntity
8
0
100
AcDbCircle
10
185.00375537574831
20
42.907283782963162
30
0
40
13.000000193721895
210
0
220
-0
230
-1
100
AcDbArc
50
220.40845500794288
51
221.87725927776799
0
ARC
5
209
100
AcDbEntity
8
0
100
AcDbCircle
10
-194.79368457967121
20
51.460487347627961
30
0
40
1.0000000149011319
210
0
220
0
230
1
100
AcDbArc
50
-128.93862963888131
51
46.652915353170648
0
LINE
5
210
100
AcDbEntity
8
0
100
AcDbLine
10
-180.42301177978518
20
56.230613708496122
30
0
11
-180.42301177978518
21
55.480613708496101
31
0
0
LINE
5
211
100
AcDbEntity
8
0
100
AcDbLine
10
-180.42301177978518
20
55.480613708496101
30
0
11
-177.8443672891238
21
55.480613708496101
31
0
0
ARC
5
212
100
AcDbEntity
8
0
100
AcDbCircle
10
-121.92301177978516
20
54.73061370849608
30
0
40
1.5000000000000036
210
0
220
-0
230
1
100
AcDbArc
50
0
51
90.000000000002174
0
ARC
5
213
100
AcDbEntity
8
0
100
AcDbCircle
10
-121.92301177978513
20
53.730613708496058
30
0
40
1.4999999999999591
210
0
220
0
230
1
100
AcDbArc
50
-90.000000000001123
51
0
0
LINE
5
214
100
AcDbEntity
8
0
100
AcDbLine
10
-120.42301177978516
20
53.730613708496108
30
0
11
-120.42301177978516
21
54.730613708496101
31
0
0
LINE
5
215
100
AcDbEntity
8
0
100
AcDbLine
10
-177.8443672891238
20
52.980613708496101
30
0
11
-180.42301177978518
21
52.980613708496101
31
0
0
LINE
5
216
100
AcDbEntity
8
0
100
AcDbLine
10
-180.42301177978518
20
52.980613708496101
30
0
11
-180.42301177978518
21
52.230613708496122
31
0
0
LINE
5
217
100
AcDbEntity
8
0
100
AcDbLine
10
-177.8443672891238
20
55.480613708496101
30
0
11
-177.8443672891238
21
52.980613708496101
31
0
0
ARC
5
218
100
AcDbEntity
8
0
100
AcDbCircle
10
-124.50005340576176
20
59.730613708496094
30
0
40
1.4999999999999769
210
-0
220
0
230
1
100
AcDbArc
50
-89.999999999997868
51
0
0
ARC
5
219
100
AcDbEntity
8
0
100
AcDbCircle
10
-124.50005340576172
20
60.730613708496115
30
0
40
1.5000000000000036
210
0
220
0
230
1
100
AcDbArc
50
0
51
90
0
LINE
5
220
100
AcDbEntity
8
0
100
AcDbLine
10
-123.00005340576178
20
59.730613708496101
30
0
11
-123.00005340576172
21
60.730613708496115
31
0
0
LINE
5
221
100
AcDbEntity
8
0
100
AcDbLine
10
-180.42140891510041
20
58.980613708496115
30
0
11
-183.00005340576172
21
58.980613708496115
31
0
0
LINE
5
222
100
AcDbEntity
8
0
100
AcDbLine
10
-180.42140891510041
20
61.480613708496115
30
0
11
-180.42140891510041
21
58.980613708496115
31
0
0
LINE
5
223
100
AcDbEntity
8
0
100
AcDbLine
10
-183.00005340576172
20
61.480613708496115
30
0
11
-180.42140891510041
21
61.480613708496115
31
0
0
LINE
5
224
100
AcDbEntity
8
0
100
AcDbLine
10
-183.00005340576172
20
58.980613708496115
30
0
11
-183.00005340576172
21
58.230613708496151
31
0
0
LINE
5
225
100
AcDbEntity
8
0
100
AcDbLine
10
-183.00005340576172
20
62.230613708496136
30
0
11
-183.00005340576172
21
61.480613708496115
31
0
0
ARC
5
226
100
AcDbEntity
8
0
100
AcDbCircle
10
-124.50003433227542
20
66.730613708496122
30
0
40
1.5000000000000036
210
-0
220
0
230
1
100
AcDbArc
50
0
51
90.00000000000054
0
LINE
5
227
100
AcDbEntity
8
0
100
AcDbLine
10
-183.00003433227542
20
64.980613708496136
30
0
11
-183.00003433227542
21
64.230613708496136
31
0
0
LINE
5
228
100
AcDbEntity
8
0
100
AcDbLine
10
-123.00003433227545
20
65.730613708496122
30
0
11
-123.00003433227542
21
66.730613708496108
31
0
0
LINE
5
229
100
AcDbEntity
8
0
100
AcDbLine
10
-183.00003433227542
20
67.480613708496136
30
0
11
-180.42138984161403
21
67.480613708496136
31
0
0
LINE
5
230
100
AcDbEntity
8
0
100
AcDbLine
10
-180.42138984161403
20
64.980613708496136
30
0
11
-183.00003433227542
21
64.980613708496136
31
0
0
ARC
5
231
100
AcDbEntity
8
0
100
AcDbCircle
10
-124.50003433227545
20
65.730613708496108
30
0
40
1.4999999999999947
210
-0
220
0
230
1
100
AcDbArc
50
-89.9999999999973
51
0
0
LINE
5
232
100
AcDbEntity
8
0
100
AcDbLine
10
-180.42138984161403
20
67.480613708496136
30
0
11
-180.42138984161403
21
64.980613708496136
31
0
0
LINE
5
233
100
AcDbEntity
8
0
100
AcDbLine
10
-183.00003433227542
20
68.230613708496136
30
0
11
-183.00003433227542
21
67.480613708496136
31
0
0
ARC
5
234
100
AcDbEntity
8
0
100
AcDbCircle
10
-124.50001525878912
20
71.730613708496179
30
0
40
1.5000000000000302
210
-0
220
0
230
1
100
AcDbArc
50
270.00000000000273
51
360
0
LINE
5
235
100
AcDbEntity
8
0
100
AcDbLine
10
-183.00001525878906
20
70.980613708496136
30
0
11
-183.00001525878906
21
70.230613708496151
31
0
0
LINE
5
236
100
AcDbEntity
8
0
100
AcDbLine
10
-183.00001525878906
20
73.480613708496122
30
0
11
-180.42137076812767
21
73.480613708496122
31
0
0
LINE
5
237
100
AcDbEntity
8
0
100
AcDbLine
10
-183.00001525878906
20
74.230613708496122
30
-3.2303165666562294e-46
11
-183.00001525878906
21
73.480613708496122
31
0
0
LINE
5
238
100
AcDbEntity
8
0
100
AcDbLine
10
-180.42137076812767
20
70.980613708496136
30
0
11
-183.00001525878906
21
70.980613708496136
31
0
0
LINE
5
239
100
AcDbEntity
8
0
100
AcDbLine
10
-123.00001525878909
20
71.730613708496122
30
0
11
-123.00001525878906
21
72.730613708496122
31
0
0
LINE
5
240
100
AcDbEntity
8
0
100
AcDbLine
10
-180.42137076812767
20
73.480613708496122
30
0
11
-180.42137076812767
21
70.980613708496136
31
0
0
ARC
5
241
100
AcDbEntity
8
0
100
AcDbCircle
10
-124.50001525878906
20
72.730613708496136
30
0
40
1.5000000000000036
210
-0
220
0
230
1
100
AcDbArc
50
0
51
90
0
LINE
5
242
100
AcDbEntity
8
0
100
AcDbLine
10
-185.29331901031529
20
76.980613708496122
30
0
11
-187.87196350097656
21
76.980613708496122
31
0
0
ARC
5
243
100
AcDbEntity
8
0
100
AcDbCircle
10
-129.37196350097656
20
78.730613708496108
30
0
40
1.4999999999999858
210
0
220
-0
230
1
100
AcDbArc
50
0
51
90.000000000001094
0
LINE
5
244
100
AcDbEntity
8
0
100
AcDbLine
10
-185.29331901031529
20
79.480613708496122
30
0
11
-185.29331901031529
21
76.980613708496122
31
0
0
ARC
5
245
100
AcDbEntity
8
0
100
AcDbCircle
10
-129.37196350097656
20
77.730613708496065
30
0
40
1.4999999999999503
210
0
220
0
230
1
100
AcDbArc
50
-90.000000000001123
51
0
0
LINE
5
246
100
AcDbEntity
8
0
100
AcDbLine
10
-187.87196350097656
20
76.980613708496122
30
0
11
-187.87196350097656
21
76.230613708496122
31
0
0
LINE
5
247
100
AcDbEntity
8
0
100
AcDbLine
10
-187.87196350097656
20
79.480613708496122
30
0
11
-185.29331901031529
21
79.480613708496122
31
0
0
LINE
5
248
100
AcDbEntity
8
0
100
AcDbLine
10
-187.87196350097656
20
80.230613708496122
30
0
11
-187.87196350097656
21
79.480613708496122
31
0
0
LINE
5
249
100
AcDbEntity
8
0
100
AcDbLine
10
-127.87196350097661
20
77.730613708496094
30
0
11
-127.87196350097659
21
78.730613708496122
31
0
0
LINE
5
250
100
AcDbEntity
8
0
100
AcDbLine
10
-159.87196044921876
20
95.73061370849608
30
0
11
-164.8719604492187
21
95.73061370849608
31
0
0
LINE
5
251
100
AcDbEntity
8
0
100
AcDbLine
10
-159.8719604492187
20
87.230613559484482
30
0
11
-159.87196044921876
21
95.73061370849608
31
0
0
ARC
5
252
100
AcDbEntity
8
0
100
AcDbCircle
10
-164.87196044921873
20
87.230613559484482
30
0
40
5
210
-0
220
0
230
1
100
AcDbArc
50
-89.999999999999702
51
0
0
LINE
5
253
100
AcDbEntity
8
0
100
AcDbLine
10
-164.8719604492187
20
87.230613559484482
30
0
11
-174.27196044921874
21
87.230613559484482
31
-2.4651903288156623e-31
0
LINE
5
254
100
AcDbEntity
8
0
100
AcDbLine
10
-174.27196044921874
20
87.230613559484482
30
-2.4651903288156623e-31
11
-174.27196044921874
21
95.73061370849608
31
-5.4738221262688167e-47
0
LINE
5
255
100
AcDbEntity
8
0
100
AcDbLine
10
-174.27196044921874
20
95.73061370849608
30
-5.4738221262688167e-47
11
-179.27196044921874
21
95.73061370849608
31
-1.2325951644078312e-31
0
LINE
5
256
100
AcDbEntity
8
0
100
AcDbLine
10
-179.27196044921874
20
95.73061370849608
30
-1.2325951644078312e-31
11
-179.27196044921874
21
87.230613559484482
31
5.4738221262688167e-47
0
ARC
5
257
100
AcDbEntity
8
0
100
AcDbCircle
10
-174.27196044921874
20
87.230613559484482
30
-2.4651903288156623e-31
40
5
210
4.930380657631326e-32
220
0
230
1
100
AcDbArc
50
180
51
269.99999999999903
0
LWPOLYLINE
5
258
100
AcDbEntity
8
0
100
AcDbPolyline
90
4
70
1
43
0.0
10
-132.87196335196495
20
96.630625915527375
10
-132.87196335196495
20
87.230625915527341
10
-152.87196350097656
20
87.230625915527341
10
-152.87196350097656
20
96.630625915527304
0
LINE
5
259
100
AcDbEntity
8
0
100
AcDbLine
10
-157.87196350097656
20
96.630625915527375
30
0
11
-157.87196350097656
21
87.230625915527341
31
0
0
ARC
5
260
100
AcDbEntity
8
0
100
AcDbCircle
10
-152.87196350097656
20
87.230625915527355
30
0
40
5.0000000000000178
210
0
220
0
230
1
100
AcDbArc
50
180
51
270
0
ARC
5
261
100
AcDbEntity
8
0
100
AcDbCircle
10
-132.87196335196498
20
87.230625915527355
30
0
40
5.0000000000000178
210
-0
220
0
230
1
100
AcDbArc
50
270.00000000000034
51
360
0
LINE
5
262
100
AcDbEntity
8
0
100
AcDbLine
10
-127.87196335196496
20
87.230625915527341
30
0
11
-127.87196335196496
21
96.630625915527304
31
0
0
ARC
5
263
100
AcDbEntity
8
0
100
AcDbCircle
10
-132.87196335196504
20
96.630625915527318
30
0
40
5.0000000000000711
210
-0
220
0
230
1
100
AcDbArc
50
0
51
89.999999999999019
0
ARC
5
264
100
AcDbEntity
8
0
100
AcDbCircle
10
-152.87196350097656
20
96.630625915527361
30
0
40
5.0000000000000178
210
0
220
0
230
1
100
AcDbArc
50
90
51
180
0
LWPOLYLINE
5
265
100
AcDbEntity
8
0
100
AcDbPolyline
90
4
70
1
43
0.0
10
-111.17246370139974
20
91.728683546185493
10
-14.172463701399671
20
91.728683546185493
10
-14.172463701399671
20
89.728683546185522
10
-111.17246370139974
20
89.728683546185493
0
ARC
5
266
100
AcDbEntity
8
0
100
AcDbCircle
10
-11.371952542662584
20
87.228683471679673
30
0
40
6.499999999999968
210
0
220
0
230
1
100
AcDbArc
50
-90.000000000000313
51
0
0
LINE
5
267
100
AcDbEntity
8
0
100
AcDbLine
10
-125.87195434570313
20
80.728683471679688
30
0
11
-122.87195434570314
21
80.728683471679688
31
0
0
LINE
5
268
100
AcDbEntity
8
0
100
AcDbLine
10
-122.87195434570314
20
77.728683471679688
30
0
11
-121.32144408848632
21
77.728683471679688
31
0
0
LINE
5
269
100
AcDbEntity
8
0
100
AcDbLine
10
-122.87195434570314
20
103.7286836206913
30
0
11
-122.87195434570314
21
100.7286836206913
31
0
0
ARC
5
270
100
AcDbEntity
8
0
100
AcDbCircle
10
113.97297486013682
20
75.22868347167973
30
0
40
5.4999999999999627
210
0
220
0
230
-1
100
AcDbArc
50
45.584691402806513
51
90.000000000000441
0
ARC
5
271
100
AcDbEntity
8
0
100
AcDbCircle
10
-121.32144408848637
20
82.72868347167983
30
0
40
5.0000000000001332
210
-0
220
0
230
1
100
AcDbArc
50
270.00000000000068
51
314.41530859719182
0
LINE
5
272
100
AcDbEntity
8
0
100
AcDbLine
10
-4.8719525426626165
20
87.228683471679716
30
0
11
-4.8719525426626138
21
94.228683620691314
31
0
0
LINE
5
273
100
AcDbEntity
8
0
100
AcDbLine
10
-122.87195434570314
20
100.7286836206913
30
0
11
-125.87195434570317
21
100.7286836206913
31
0
0
LINE
5
274
100
AcDbEntity
8
0
100
AcDbLine
10
-121.32144408848632
20
103.7286836206913
30
0
11
-122.87195434570314
21
103.7286836206913
31
0
0
ARC
5
275
100
AcDbEntity
8
0
100
AcDbCircle
10
-11.371952542662605
20
94.228683620691328
30
0
40
6.4999999999999902
210
-0
220
0
230
1
100
AcDbArc
50
0
51
90.000000000000114
0
LINE
5
276
100
AcDbEntity
8
0
100
AcDbLine
10
-122.87195434570314
20
80.728683471679688
30
0
11
-122.87195434570314
21
77.728683471679688
31
0
0
LINE
5
277
100
AcDbEntity
8
0
100
AcDbLine
10
-125.87195434570317
20
100.7286836206913
30
0
11
-125.87195434570313
21
80.728683471679688
31
0
0
ARC
5
278
100
AcDbEntity
8
0
100
AcDbCircle
10
113.97297486013676
20
106.22868362069136
30
0
40
5.5000000000000426
210
-0
220
0
230
-1
100
AcDbArc
50
270.00000000000017
51
314.41530859719285
0
ARC
5
279
100
AcDbEntity
8
0
100
AcDbCircle
10
-121.32144408848633
20
98.728683620691257
30
0
40
5.0000000000000693
210
0
220
-0
230
1
100
AcDbArc
50
45.584691402807408
51
89.999999999999844
0
LWPOLYLINE
5
280
100
AcDbEntity
8
0
100
AcDbPolyline
90
4
70
1
43
0.0
10
-122.87195434570314
20
85.728683471679688
10
-122.87195434570314
20
95.728683471679688
10
-119.87195434570313
20
95.728683471679688
10
-119.87195434570313
20
85.728683471679688
0
CIRCLE
5
281
100
AcDbEntity
8
0
100
AcDbCircle
10
-10.871952632069581
20
90.728683471679702
30
0
40
1.7500000000000071
210
0
220
0
230
1
0
LWPOLYLINE
5
282
100
AcDbEntity
8
0
100
AcDbPolyline
90
4
70
1
43
0.0
10
-14.699489118424509
20
67.99999992549418
10
-14.699489118424511
20
65.99999992549418
10
-111.69948911842455
20
65.999999925494222
10
-111.69948911842455
20
67.999999925494222
0
ARC
5
283
100
AcDbEntity
8
0
100
AcDbCircle
10
-114.5000002771616
20
70.500000000000028
30
0
40
6.4999999999999947
210
0
220
-0
230
1
100
AcDbArc
50
90
51
180
0
LINE
5
284
100
AcDbEntity
8
0
100
AcDbLine
10
-2.999998474121099
20
53.999999850988388
30
0
11
-2.9999984741210977
21
56.999999850988388
31
0
0
LINE
5
285
100
AcDbEntity
8
0
100
AcDbLine
10
-2.9999984741210923
20
80
30
0
11
-4.5505087313379091
21
80
31
0
0
ARC
5
286
100
AcDbEntity
8
0
100
AcDbCircle
10
-4.5505087313379189
20
58.999999850988367
30
0
40
4.9999999999999734
210
0
220
0
230
1
100
AcDbArc
50
225.5846914028067
51
270
0
LINE
5
287
100
AcDbEntity
8
0
100
AcDbLine
10
-2.9999984741210977
20
56.999999850988388
30
0
11
1.5258789032301934e-06
21
56.999999850988388
31
0
0
LINE
5
288
100
AcDbEntity
8
0
100
AcDbLine
10
-121.0000002771616
20
70.500000000000014
30
0
11
-121.00000027716162
21
63.499999850988409
31
0
0
LINE
5
289
100
AcDbEntity
8
0
100
AcDbLine
10
-4.5505087313379189
20
53.999999850988388
30
0
11
-2.999998474121099
21
53.999999850988388
31
0
0
ARC
5
290
100
AcDbEntity
8
0
100
AcDbCircle
10
-4.5505087313379349
20
75.000000000000028
30
0
40
4.9999999999999645
210
0
220
-0
230
1
100
AcDbArc
50
89.999999999999716
51
134.41530859719293
0
ARC
5
291
100
AcDbEntity
8
0
100
AcDbCircle
10
11.898977959687461
20
82.500000000000014
30
0
40
5.5000000000000169
210
0
220
-0
230
-1
100
AcDbArc
50
225.58469140280695
51
269.99999999999989
0
LINE
5
292
100
AcDbEntity
8
0
100
AcDbLine
10
1.5258789074628954e-06
20
77
30
0
11
-2.9999984741210928
21
77
31
0
0
ARC
5
293
100
AcDbEntity
8
0
100
AcDbCircle
10
11.898977959687445
20
51.499999850988381
30
0
40
5.5000000000000071
210
0
220
0
230
-1
100
AcDbArc
50
89.999999999999915
51
134.41530859719273
0
ARC
5
294
100
AcDbEntity
8
0
100
AcDbCircle
10
-114.50000027716163
20
63.499999850988416
30
0
40
6.4999999999999858
210
0
220
0
230
1
100
AcDbArc
50
180
51
270.00000000000023
0
LINE
5
295
100
AcDbEntity
8
0
100
AcDbLine
10
1.5258789032301934e-06
20
56.999999850988388
30
0
11
1.5258789074628954e-06
21
77
31
0
0
LINE
5
296
100
AcDbEntity
8
0
100
AcDbLine
10
-2.9999984741210928
20
77
30
0
11
-2.9999984741210923
21
80
31
0
0
LWPOLYLINE
5
297
100
AcDbEntity
8
0
100
AcDbPolyline
90
4
70
1
43
0.0
10
-2.9999984741210945
20
72
10
-2.9999984741210959
20
62
10
-5.9999984741210968
20
62
10
-5.9999984741210941
20
72
0
CIRCLE
5
298
100
AcDbEntity
8
0
100
AcDbCircle
10
-115.00000018775467
20
67.000000000000014
30
0
40
1.7500000000000071
210
0
220
0
230
1
0
LWPOLYLINE
5
299
100
AcDbEntity
8
0
100
AcDbPolyline
90
4
70
1
43
0.0
10
-51.70000000000001
20
110.22868347167972
10
-48.299999999999997
20
110.22868347167972
10
-48.299999999999997
20
105.22868362069133
10
-51.70000000000001
20
105.22868362069133
0
ARC
5
300
100
AcDbEntity
8
0
100
AcDbCircle
10
-97
20
109.72868347167972
30
0
40
3.0000000000000071
210
0
220
0
230
1
100
AcDbArc
50
90.00000000000027
51
180
0
ARC
5
301
100
AcDbEntity
8
0
100
AcDbCircle
10
-2.9999999999999889
20
105.7286834716797
30
0
40
2.9999999999999893
210
0
220
0
230
1
100
AcDbArc
50
-90
51
0
0
LINE
5
302
100
AcDbEntity
8
0
100
AcDbLine
10
-100
20
109.72868347167969
30
0
11
-100
21
105.72868347167969
31
0
0
LINE
5
303
100
AcDbEntity
8
0
100
AcDbLine
10
5.5511151231257827e-16
20
105.7286834716797
30
0
11
2.7755575615628917e-15
21
109.72868347167974
31
0
0
ARC
5
304
100
AcDbEntity
8
0
100
AcDbCircle
10
-3.0000000000000422
20
109.72868347167969
30
0
40
3.0000000000000449
210
0
220
-0
230
1
100
AcDbArc
50
0
51
89.99999999999919
0
ARC
5
305
100
AcDbEntity
8
0
100
AcDbCircle
10
-96.999999999999972
20
105.72868347167974
30
0
40
3.0000000000000249
210
0
220
0
230
1
100
AcDbArc
50
180
51
269.9999999999992
0
LINE
5
306
100
AcDbEntity
8
0
100
AcDbLine
10
-199.00000000000003
20
108.22868347167969
30
0
11
-196
21
108.22868347167969
31
0
0
LINE
5
307
100
AcDbEntity
8
0
100
AcDbLine
10
-199.00000000000003
20
113.2286836206913
30
0
11
-199.00000000000003
21
108.22868347167969
31
0
0
LINE
5
308
100
AcDbEntity
8
0
100
AcDbLine
10
-101.99999819695948
20
105.7286834716797
30
0
11
-101.99999819695948
21
113.22868362069131
31
0
0
LINE
5
309
100
AcDbEntity
8
0
100
AcDbLine
10
-196
20
108.22868347167969
30
0
11
-196
21
105.72868347167969
31
0
0
LINE
5
310
100
AcDbEntity
8
0
100
AcDbLine
10
-164.8719604492187
20
95.73061370849608
30
0
11
-164.87196044921873
21
87.230613559484482
31
0
0
LINE
5
311
100
AcDbEntity
8
0
100
AcDbLine
10
-101.99999819695948
20
113.22868362069131
30
0
11
-149.99999909847975
21
113.2286836206913
31
0
0
LINE
5
312
100
AcDbEntity
8
0
100
AcDbLine
10
-171.38779358399617
20
113.22868362069131
30
0
11
-199.00000000000003
21
113.2286836206913
31
0
0
LINE
5
313
100
AcDbEntity
8
0
100
AcDbLine
10
-150.49999909847975
20
113.2286836206913
30
0
11
-170.88779358399617
21
113.2286836206913
31
0
0
LINE
5
314
100
AcDbEntity
8
0
100
AcDbLine
10
-149.99999909847975
20
105.72868347167969
30
0
11
-101.99999819695948
21
105.7286834716797
31
0
0
LINE
5
315
100
AcDbEntity
8
0
100
AcDbLine
10
-170.88779358399617
20
105.72868347167969
30
0
11
-150.49999909847975
21
105.72868347167969
31
0
0
LINE
5
316
100
AcDbEntity
8
0
100
AcDbLine
10
-196
20
105.72868347167969
30
0
11
-171.38779358399617
21
105.72868347167969
31
0
0
LINE
5
317
100
AcDbEntity
8
0
100
AcDbLine
10
-97.000000000000014
20
102.7286834716797
30
0
11
-94.866040878952091
21
102.7286834716797
31
0
0
LINE
5
318
100
AcDbEntity
8
0
100
AcDbLine
10
-41.177150474134486
20
102.72868347167972
30
0
11
-2.9999999999999893
21
102.72868347167972
31
0
0
LINE
5
319
100
AcDbEntity
8
0
100
AcDbLine
10
-94.366040878952077
20
102.7286834716797
30
0
11
-41.677150474134486
21
102.72868347167972
31
0
0
LINE
5
320
100
AcDbEntity
8
0
100
AcDbLine
10
-11.371952542662617
20
100.72868362069131
30
0
11
-41.177150474134486
21
100.72868362069131
31
0
0
LINE
5
321
100
AcDbEntity
8
0
100
AcDbLine
10
-94.866040878952091
20
112.72868347167972
30
0
11
-97.000000000000014
21
112.72868347167972
31
0
0
LINE
5
322
100
AcDbEntity
8
0
100
AcDbLine
10
-2.9999999999999991
20
112.72868347167973
30
0
11
-41.177150474134486
21
112.72868347167973
31
0
0
LINE
5
323
100
AcDbEntity
8
0
100
AcDbLine
10
-41.677150474134486
20
112.72868347167972
30
0
11
-94.366040878952077
21
112.72868347167972
31
0
0
LINE
5
324
100
AcDbEntity
8
0
100
AcDbLine
10
-41.677150474134486
20
100.72868362069131
30
0
11
-94.366040878952077
21
100.72868362069131
31
0
0
LINE
5
325
100
AcDbEntity
8
0
100
AcDbLine
10
-94.866040878952091
20
100.72868362069131
30
0
11
-113.97297486013677
21
100.72868362069131
31
0
0
LINE
5
326
100
AcDbEntity
8
0
100
AcDbLine
10
-94.866040878952091
20
77.000000000000028
30
0
11
-114.5000002771616
21
77.000000000000028
31
0
0
LINE
5
327
100
AcDbEntity
8
0
100
AcDbLine
10
-41.677150474134486
20
77.000000000000014
30
0
11
-94.366040878952077
21
77.000000000000028
31
0
0
LINE
5
328
100
AcDbEntity
8
0
100
AcDbLine
10
-11.898977959687452
20
77
30
0
11
-41.177150474134486
21
77.000000000000014
31
0
0
LINE
5
329
100
AcDbEntity
8
0
100
AcDbLine
10
-41.177150474134486
20
80.728683471679702
30
0
11
-11.371952542662616
21
80.728683471679702
31
0
0
LINE
5
330
100
AcDbEntity
8
0
100
AcDbLine
10
-113.97297486013677
20
80.728683471679688
30
0
11
-94.866040878952091
21
80.728683471679688
31
0
0
LINE
5
331
100
AcDbEntity
8
0
100
AcDbLine
10
-94.366040878952077
20
80.728683471679688
30
0
11
-41.677150474134486
21
80.728683471679702
31
0
0
LINE
5
332
100
AcDbEntity
8
0
100
AcDbLine
10
-132.87196335196495
20
101.63062591552738
30
0
11
-149.99999909847975
21
101.63062591552738
31
0
0
LINE
5
333
100
AcDbEntity
8
0
100
AcDbLine
10
-150.49999909847975
20
101.63062591552738
30
0
11
-152.87196350097656
21
101.63062591552738
31
0
0
LINE
5
334
100
AcDbEntity
8
0
100
AcDbLine
10
-152.87196350097656
20
82.230625915527341
30
0
11
-150.49999909847975
21
82.230625915527341
31
0
0
LINE
5
335
100
AcDbEntity
8
0
100
AcDbLine
10
-149.99999909847975
20
82.230625915527341
30
0
11
-132.87196335196495
21
82.230625915527341
31
0
0
LINE
5
336
100
AcDbEntity
8
0
100
AcDbLine
10
-174.27196044921882
20
82.230613559484482
30
-2.4651903288156623e-31
11
-171.38779358399617
21
82.230613559484482
31
-1.6343488707470473e-31
0
LINE
5
337
100
AcDbEntity
8
0
100
AcDbLine
10
-170.88779358399617
20
82.230613559484482
30
-1.5089352178080296e-31
11
-164.8719604492187
21
82.230613559484482
31
0
0
LINE
5
338
100
AcDbEntity
8
0
100
AcDbLine
10
-171.38779358399617
20
80.230613708496122
30
-1.604566343476328e-31
11
-187.87196350097656
21
80.230613708496122
31
0
0
LINE
5
339
100
AcDbEntity
8
0
100
AcDbLine
10
-187.87196350097656
20
76.230613708496122
30
0
11
-171.38779358399617
21
76.230613708496122
31
-1.5450012844969461e-31
0
LINE
5
340
100
AcDbEntity
8
0
100
AcDbLine
10
-129.37196350097659
20
80.230613708496094
30
0
11
-149.99999909847975
21
80.230613708496108
31
0
0
LINE
5
341
100
AcDbEntity
8
0
100
AcDbLine
10
-150.49999909847975
20
80.230613708496108
30
0
11
-170.88779358399617
21
80.230613708496108
31
-1.4814380872513359e-31
0
LINE
5
342
100
AcDbEntity
8
0
100
AcDbLine
10
-170.88779358399617
20
76.230613708496122
30
-1.426443822040556e-31
11
-150.49999909847975
21
76.230613708496122
31
0
0
LINE
5
343
100
AcDbEntity
8
0
100
AcDbLine
10
-149.99999909847975
20
76.230613708496122
30
0
11
-129.37196350097659
21
76.230613708496122
31
0
0
LINE
5
344
100
AcDbEntity
8
0
100
AcDbLine
10
-149.99999909847975
20
52.230613708496108
30
0
11
-121.92301177978516
21
52.230613708496101
31
0
0
LINE
5
345
100
AcDbEntity
8
0
100
AcDbLine
10
-121.92301177978521
20
56.230613708496087
30
0
11
-149.99999909847975
21
56.230613708496108
31
0
0
LINE
5
346
100
AcDbEntity
8
0
100
AcDbLine
10
-149.99999909847975
20
58.230613708496136
30
0
11
-124.5000534057617
21
58.230613708496115
31
0
0
LINE
5
347
100
AcDbEntity
8
0
100
AcDbLine
10
-124.50005340576172
20
62.230613708496122
30
0
11
-149.99999909847975
21
62.230613708496129
31
0
0
LINE
5
348
100
AcDbEntity
8
0
100
AcDbLine
10
-149.99999909847975
20
64.230613708496122
30
0
11
-124.50003433227538
21
64.230613708496108
31
0
0
LINE
5
349
100
AcDbEntity
8
0
100
AcDbLine
10
-124.50003433227543
20
68.230613708496122
30
0
11
-149.99999909847975
21
68.230613708496136
31
0
0
LINE
5
350
100
AcDbEntity
8
0
100
AcDbLine
10
-149.99999909847975
20
70.230613708496151
30
0
11
-124.50001525878905
21
70.230613708496151
31
0
0
LINE
5
351
100
AcDbEntity
8
0
100
AcDbLine
10
-124.50001525878906
20
74.230613708496122
30
0
11
-170.88779358399617
21
74.230613708496122
31
-1.3989466894351661e-31
0
LWPOLYLINE
5
352
100
AcDbEntity
8
0
100
AcDbPolyline
90
2
70
1
43
0.0
10
-171.38779358399617
20
74.230613708496122
10
-183.00001525878906
20
74.230613708496122
0
LINE
5
353
100
AcDbEntity
8
0
100
AcDbLine
10
-183.00001525878906
20
70.230613708496151
30
0
11
-171.38779358399617
21
70.230613708496165
31
-1.4556536960278738e-31
0
LINE
5
354
100
AcDbEntity
8
0
100
AcDbLine
10
-170.88779358399617
20
70.230613708496151
30
-1.3439524242243866e-31
11
-150.49999909847975
21
70.230613708496165
31
0
0
LINE
5
355
100
AcDbEntity
8
0
100
AcDbLine
10
-150.49999909847975
20
68.230613708496136
30
0
11
-170.88779358399617
21
68.230613708496136
31
-1.3164552916189963e-31
0
LINE
5
356
100
AcDbEntity
8
0
100
AcDbLine
10
-171.38779358399617
20
68.230613708496151
30
-1.4258711665381826e-31
11
-183.00003433227542
21
68.230613708496136
31
0
0
LINE
5
357
100
AcDbEntity
8
0
100
AcDbLine
10
-183.00003433227542
20
64.230613708496136
30
0
11
-171.38779358399617
21
64.230613708496151
31
-1.3663061075588005e-31
0
LINE
5
358
100
AcDbEntity
8
0
100
AcDbLine
10
-170.88779358399617
20
64.230613708496122
30
-1.2614610264082162e-31
11
-150.49999909847975
21
64.230613708496108
31
0
0
LINE
5
359
100
AcDbEntity
8
0
100
AcDbLine
10
-150.49999909847975
20
62.230613708496136
30
0
11
-170.88779358399617
21
62.230613708496136
31
-1.2339638938028265e-31
0
LINE
5
360
100
AcDbEntity
8
0
100
AcDbLine
10
-171.38779358399617
20
62.230613708496136
30
-1.3365235780691095e-31
11
-183.00005340576172
21
62.230613708496136
31
0
0
LINE
5
361
100
AcDbEntity
8
0
100
AcDbLine
10
-183.00005340576172
20
58.230613708496151
30
0
11
-171.38779358399617
21
58.230613708496136
31
-1.2769585190897274e-31
0
LINE
5
362
100
AcDbEntity
8
0
100
AcDbLine
10
-170.88779358399617
20
58.230613708496143
30
-1.1789696285920464e-31
11
-150.49999909847975
21
58.230613708496136
31
0
0
LINE
5
363
100
AcDbEntity
8
0
100
AcDbLine
10
-150.49999909847975
20
56.230613708496108
30
0
11
-170.88779358399617
21
56.230613708496122
31
-1.1514724959866563e-31
0
LINE
5
364
100
AcDbEntity
8
0
100
AcDbLine
10
-171.38779358399617
20
56.230613708496122
30
-1.2471759896000361e-31
11
-180.42301177978518
21
56.230613708496122
31
0
0
LINE
5
365
100
AcDbEntity
8
0
100
AcDbLine
10
-146.99999694824214
20
50.230621337890625
30
0
11
-149.99999909847975
21
50.230621337890625
31
0
0
LINE
5
366
100
AcDbEntity
8
0
100
AcDbLine
10
-150.49999909847975
20
50.230621337890625
30
0
11
-156.39999694824218
21
50.230621337890639
31
0
0
LINE
5
367
100
AcDbEntity
8
0
100
AcDbLine
10
-156.39999694824218
20
45.230621337890653
30
0
11
-150.49999909847975
21
45.230621337890625
31
0
0
LINE
5
368
100
AcDbEntity
8
0
100
AcDbLine
10
-149.99999909847975
20
45.230621337890625
30
0
11
-146.9999969482422
21
45.230621337890618
31
0
0
LINE
5
369
100
AcDbEntity
8
0
100
AcDbLine
10
-150.49999909847975
20
45.230621337890625
30
0
11
-149.99999909847975
21
45.230621337890625
31
0
0
LINE
5
370
100
AcDbEntity
8
0
100
AcDbLine
10
-182.00000892498218
20
1.5000000000000013
30
0
11
-171.38779358399617
21
1.500000000000008
31
-4.3216793121895056e-32
0
LINE
5
371
100
AcDbEntity
8
0
100
AcDbLine
10
-171.38779358399617
20
9.0000001490116244
30
-5.438524190242632e-32
11
-182.00000892498218
21
9.0000001490116137
31
0
0
LINE
5
372
100
AcDbEntity
8
0
100
AcDbLine
10
-181.99999976970875
20
10.999996185302736
30
0
11
-171.38779358399617
21
10.999996185302736
31
-5.7363488948931578e-32
0
LINE
5
373
100
AcDbEntity
8
0
100
AcDbLine
10
-171.38779358399617
20
18.499996334314346
30
-6.8531937729462841e-32
11
-181.99999976970875
21
18.49999633431435
31
0
0
LINE
5
374
100
AcDbEntity
8
0
100
AcDbLine
10
-193.21954345703125
20
20.500000000000004
30
0
11
-171.38779358399617
21
20.500000000000014
31
-7.1510196137101503e-32
0
LINE
5
375
100
AcDbEntity
8
0
100
AcDbLine
10
-170.88779358399617
20
20.500000000000014
30
-6.6022778437941484e-32
11
-150.49999909847975
21
20.500000000000014
31
0
0
LINE
5
376
100
AcDbEntity
8
0
100
AcDbLine
10
-149.99999909847975
20
20.500000000000025
30
0
11
-96.21954165399076
21
20.500000000000021
31
0
0
LINE
5
377
100
AcDbEntity
8
0
100
AcDbLine
10
-150.49999909847975
20
18.499996334314346
30
0
11
-170.88779358399617
21
18.499996334314346
31
-6.327306013761026e-32
0
LINE
5
378
100
AcDbEntity
8
0
100
AcDbLine
10
-170.88779358399617
20
10.999996185302727
30
-5.296163520571939e-32
11
-150.49999909847975
21
10.999996185302736
31
0
0
LINE
5
379
100
AcDbEntity
8
0
100
AcDbLine
10
-150.49999909847975
20
9.0000001490116244
30
0
11
-170.88779358399617
21
9.0000001490116244
31
-5.0211927394711842e-32
0
LINE
5
380
100
AcDbEntity
8
0
100
AcDbLine
10
-170.88779358399617
20
1.5000000000000036
30
-3.9900502462820973e-32
11
-150.49999909847975
21
1.5000000000000124
31
0
0
LINE
5
381
100
AcDbEntity
8
0
100
AcDbLine
10
-96.21954165399076
20
28.000000000000025
30
0
11
-170.88779358399617
21
28.000000118366355
31
-7.633420332769948e-32
0
LINE
5
382
100
AcDbEntity
8
0
100
AcDbLine
10
-171.38779358399617
20
28.000000119158962
30
-8.2678644873178358e-32
11
-190.21954345703125
21
28.000000149011612
31
0
0
LINE
5
383
100
AcDbEntity
8
0
100
AcDbLine
10
-180.42301177978518
20
52.230613708496122
30
0
11
-171.38779358399617
21
52.230613708496108
31
0
0
LINE
5
384
100
AcDbEntity
8
0
100
AcDbLine
10
-170.88779358399617
20
52.230613708496108
30
0
11
-150.49999909847975
21
52.230613708496101
31
0
0
LINE
5
385
100
AcDbEntity
8
0
100
AcDbLine
10
-124.50001525878906
20
74.230613708496122
30
0
11
-149.99999909847975
21
74.230613708496122
31
-7.6901975608952079e-32
0
LINE
5
386
100
AcDbEntity
8
0
100
AcDbLine
10
-150.49999909847975
20
74.230613708496122
30
-7.8409858439239524e-32
11
-170.88779358399617
21
74.230613708496122
31
-1.3989466894351661e-31
0
LINE
5
387
100
AcDbEntity
8
0
100
AcDbLine
10
-182.42299727373489
20
55.648543244076372
30
0
11
-182.42299727373489
21
50.00000074505806
31
0
0
LINE
5
388
100
AcDbEntity
8
0
100
AcDbLine
10
-182.42299727373489
20
49.50000074505806
30
0
11
-182.42299727373489
21
40.40728378295897
31
0
0
LINE
5
389
100
AcDbEntity
8
0
100
AcDbLine
10
-114.5000002771616
20
56.999999850988424
30
0
11
-94.866040878952091
21
56.999999850988416
31
0
0
LINE
5
390
100
AcDbEntity
8
0
100
AcDbLine
10
-94.219544602756116
20
50
30
0
11
-94.366040878952077
21
50
31
0
0
LINE
5
391
100
AcDbEntity
8
0
100
AcDbLine
10
-94.866040878952091
20
50
30
0
11
-132.96446609406729
21
50
31
0
0
LINE
5
392
100
AcDbEntity
8
0
100
AcDbLine
10
-94.366040878952077
20
50
30
0
11
-94.866040878952091
21
50
31
0
0
LINE
5
393
100
AcDbEntity
8
0
100
AcDbLine
10
-132.96446609406729
20
29.999999999999986
30
0
11
-94.866040878952091
21
29.999999999999993
31
0
0
LINE
5
394
100
AcDbEntity
8
0
100
AcDbLine
10
-94.366040878952077
20
30
30
0
11
-94.21954460275613
21
30
31
0
0
LINE
5
395
100
AcDbEntity
8
0
100
AcDbLine
10
-91.999999769708708
20
18.499996334314368
30
0
11
-94.366040878952077
21
18.499996334314361
31
0
0
LINE
5
396
100
AcDbEntity
8
0
100
AcDbLine
10
-94.866040878952091
20
18.499996334314368
30
0
11
-149.99999909847975
21
18.499996334314346
31
0
0
LINE
5
397
100
AcDbEntity
8
0
100
AcDbLine
10
-92.000008924982154
20
9.000000149011635
30
0
11
-94.366040878952077
21
9.0000001490116333
31
0
0
LINE
5
398
100
AcDbEntity
8
0
100
AcDbLine
10
-94.866040878952091
20
9.0000001490116333
30
0
11
-149.99999909847975
21
9.0000001490116333
31
0
0
LINE
5
399
100
AcDbEntity
8
0
100
AcDbLine
10
-58.5
20
9.1593399531575415e-15
30
0
11
-41.677150474134486
21
1.3322676295501878e-14
31
0
0
LINE
5
400
100
AcDbEntity
8
0
100
AcDbLine
10
-41.177150474134486
20
8.8817841970012523e-15
30
0
11
1.7763568394002501e-14
21
2.0206059048177849e-14
31
0
0
LINE
5
401
100
AcDbEntity
8
0
100
AcDbLine
10
-41.677150474134486
20
1.3322676295501878e-14
30
0
11
-41.177150474134486
21
8.8817841970012523e-15
31
0
0
LINE
5
402
100
AcDbEntity
8
0
100
AcDbLine
10
1.7763568394002501e-14
20
4.0000000000000204
30
0
11
-41.177150474134486
21
4.0000000000000124
31
0
0
LINE
5
403
100
AcDbEntity
8
0
100
AcDbLine
10
-41.677150474134486
20
4.0000000000000169
30
0
11
-58.5
21
4.0000000000000089
31
0
0
LINE
5
404
100
AcDbEntity
8
0
100
AcDbLine
10
-89.999999769708751
20
6.0000000000000053
30
0
11
-41.677150474134486
21
6.0000000000000098
31
0
0
LINE
5
405
100
AcDbEntity
8
0
100
AcDbLine
10
-41.177150474134486
20
6.0000000000000142
30
0
11
2.3029127049767339e-07
21
6.0000000000000231
31
0
0
LINE
5
406
100
AcDbEntity
8
0
100
AcDbLine
10
2.3029126848943769e-07
20
13.500000149011635
30
0
11
-41.177150474134493
21
13.500000149011626
31
0
0
LINE
5
407
100
AcDbEntity
8
0
100
AcDbLine
10
-41.677150474134493
20
13.500000149011626
30
0
11
-89.999999769708751
21
13.500000149011615
31
0
0
LINE
5
408
100
AcDbEntity
8
0
100
AcDbLine
10
-90.000001295587623
20
15.500000000000007
30
0
11
-41.677150474134493
21
15.500000000000016
31
0
0
LINE
5
409
100
AcDbEntity
8
0
100
AcDbLine
10
-41.177150474134493
20
15.500000000000016
30
0
11
-1.2955876197527449e-06
21
15.500000000000027
31
0
0
LINE
5
410
100
AcDbEntity
8
0
100
AcDbLine
10
-1.2955876214180794e-06
20
23.00000014901164
30
0
11
-41.177150474134493
21
23.000000149011633
31
0
0
LINE
5
411
100
AcDbEntity
8
0
100
AcDbLine
10
-41.677150474134493
20
23.000000149011619
30
0
11
-90.000001295587623
21
23.000000149011615
31
0
0
LINE
5
412
100
AcDbEntity
8
0
100
AcDbLine
10
-45.780455397243919
20
30
30
0
11
-41.677150474134493
21
30
31
0
0
LINE
5
413
100
AcDbEntity
8
0
100
AcDbLine
10
-41.177150474134493
20
30
30
0
11
-7.0355339059327093
21
30.000000000000014
31
0
0
LINE
5
414
100
AcDbEntity
8
0
100
AcDbLine
10
-7.0355339059327093
20
50.000000000000007
30
0
11
-41.177150474134493
21
50.000000000000028
31
0
0
LINE
5
415
100
AcDbEntity
8
0
100
AcDbLine
10
-41.677150474134493
20
50.000000000000014
30
0
11
-45.780455397243898
21
50.000000000000028
31
0
0
LINE
5
416
100
AcDbEntity
8
0
100
AcDbLine
10
-94.366040878952077
20
56.999999850988416
30
0
11
-41.677150474134493
21
56.999999850988402
31
0
0
LINE
5
417
100
AcDbEntity
8
0
100
AcDbLine
10
-41.177150474134493
20
56.999999850988402
30
0
11
-11.898977959687453
21
56.999999850988388
31
0
0
LINE
5
418
100
AcDbEntity
8
0
100
AcDbLine
10
-149.99999909847975
20
1.5000000000000036
30
0
11
-94.866040878952091
21
1.5000000000000204
31
0
0
LINE
5
419
100
AcDbEntity
8
0
100
AcDbLine
10
-94.366040878952077
20
1.5000000000000204
30
0
11
-92.000008924982154
21
1.5000000000000213
31
0
0
LINE
5
420
100
AcDbEntity
8
0
100
AcDbLine
10
-149.99999909847975
20
10.999996185302745
30
0
11
-94.866040878952091
21
10.999996185302756
31
0
0
LINE
5
421
100
AcDbEntity
8
0
100
AcDbLine
10
-94.366040878952077
20
10.999996185302756
30
0
11
-91.999999769708708
21
10.999996185302756
31
0
0
LINE
5
422
100
AcDbEntity
8
0
100
AcDbLine
10
-195.19796534584566
20
100.01872343942252
30
0
11
-191.61338479325761
21
100.01872343942252
31
0
0
SPLINE
5
423
100
AcDbEntity
8
0
100
AcDbSpline
70
4
71
3
72
8
73
4
74
0
42
0.000000001
43
0.0000000001
44
0.0000000001
40
0
40
0
40
0
40
0
40
1
40
1
40
1
40
1
41
1
41
1
41
1
41
1
10
-191.61338479325761
20
100.01872343942252
30
0
10
-189.84029325748966
20
100.01872343942252
30
0
10
-188.40289077271822
20
98.581320954651076
30
0
10
-188.40289077271822
20
96.808229418883158
30
0
0
SPLINE
5
424
100
AcDbEntity
8
0
100
AcDbSpline
70
4
71
3
72
8
73
4
74
0
42
0.000000001
43
0.0000000001
44
0.0000000001
40
0
40
0
40
0
40
0
40
1
40
1
40
1
40
1
41
1
41
1
41
1
41
1
10
-188.40289077271822
20
96.808229418883158
30
0
10
-188.40289077271822
20
95.03513788311524
30
0
10
-189.84029325748966
20
93.597735398343801
30
0
10
-191.61338479325761
20
93.597735398343801
30
0
0
LINE
5
425
100
AcDbEntity
8
0
100
AcDbLine
10
-191.61338479325761
20
93.597735398343815
30
0
11
-195.5943973787264
21
93.597735398343801
31
0
0
SPLINE
5
426
100
AcDbEntity
8
0
100
AcDbSpline
70
4
71
3
72
8
73
4
74
0
42
0.000000001
43
0.0000000001
44
0.0000000001
40
0
40
0
40
0
40
0
40
1
40
1
40
1
40
1
41
1
41
1
41
1
41
1
10
-195.5943973787264
20
93.597735398343801
30
0
10
-195.63741788102982
20
93.597735398343801
30
0
10
-195.68018168489775
20
93.598634822633002
30
0
10
-195.72281713954797
20
93.60030336246362
30
0
0
LINE
5
427
100
AcDbEntity
8
0
100
AcDbLine
10
-195.72281713954794
20
93.60030336246362
30
0
11
-195.72281713954797
21
84.865191662476747
31
0
0
ARC
5
428
100
AcDbEntity
8
0
100
AcDbCircle
10
194.95229857461851
20
84.865191662476747
30
0
40
0.77051856492944992
210
-0
220
-0
230
-1
100
AcDbArc
50
-90
51
0
0
ARC
5
429
100
AcDbEntity
8
0
100
AcDbCircle
10
193.79652072722436
20
84.865191662476747
30
0
40
0.77051856492943216
210
0
220
0
230
-1
100
AcDbArc
50
180
51
269.99999999999784
0
LINE
5
430
100
AcDbEntity
8
0
100
AcDbLine
10
-193.02600216229493
20
84.865191662476747
30
0
11
-193.02600216229493
21
87.176747357265072
31
0
0
ARC
5
431
100
AcDbEntity
8
0
100
AcDbCircle
10
192.25548359736547
20
87.1767473572651
30
0
40
0.77051856492946769
210
-0
220
0
230
-1
100
AcDbArc
50
0
51
90
0
ARC
5
432
100
AcDbEntity
8
0
100
AcDbCircle
10
189.17340933764768
20
87.1767473572651
30
0
40
0.77051856492943216
210
0
220
0
230
-1
100
AcDbArc
50
90
51
180
0
LINE
5
433
100
AcDbEntity
8
0
100
AcDbLine
10
-188.40289077271825
20
87.1767473572651
30
0
11
-188.40289077271822
21
84.865191662476761
31
0
0
ARC
5
434
100
AcDbEntity
8
0
100
AcDbCircle
10
187.63237220778879
20
84.865191662476747
30
0
40
0.77051856492944992
210
-0
220
-0
230
-1
100
AcDbArc
50
-90
51
0
0
ARC
5
435
100
AcDbEntity
8
0
100
AcDbCircle
10
186.47659436039461
20
84.865191662476747
30
0
40
0.77051856492943216
210
0
220
0
230
-1
100
AcDbArc
50
180
51
270
0
LINE
5
436
100
AcDbEntity
8
0
100
AcDbLine
10
-185.70607579546518
20
84.865191662476747
30
0
11
-185.70607579546518
21
98.220846787920465
31
0
0
SPLINE
5
437
100
AcDbEntity
8
0
100
AcDbSpline
70
4
71
3
72
8
73
4
74
0
42
0.000000001
43
0.0000000001
44
0.0000000001
40
0
40
0
40
0
40
0
40
1
40
1
40
1
40
1
41
1
41
1
41
1
41
1
10
-185.70607579546518
20
98.220846787920465
30
0
10
-185.70607579546518
20
100.06495463169948
30
0
10
-187.20101008226487
20
101.55976056928141
30
0
10
-189.04498957682614
20
101.55976056928141
30
0
0
SPLINE
5
438
100
AcDbEntity
8
0
100
AcDbSpline
70
4
71
3
72
8
73
4
74
0
42
0.000000001
43
0.0000000001
44
0.0000000001
40
0
40
0
40
0
40
0
40
1
40
1
40
1
40
1
41
1
41
1
41
1
41
1
10
-192.38390335818704
20
101.55976056928141
30
0
10
-193.56600749169326
20
101.55976056928141
30
0
10
-194.60453783879933
20
100.94552873178095
30
0
10
-195.19796534584566
20
100.01872343942252
30
0
0
SPLINE
5
439
100
AcDbEntity
8
0
100
AcDbSpline
70
4
71
3
72
8
73
4
74
0
42
0.000000001
43
0.0000000001
44
0.0000000001
40
0
40
0
40
0
40
0
40
1
40
1
40
1
40
1
41
1
41
1
41
1
41
1
10
-197.26385426940686
20
94.065439947788605
30
0
10
-198.18796275854524
20
94.628945920978651
30
0
10
-198.80489139926573
20
95.646544568177887
30
0
10
-198.80489139926573
20
96.808229418883158
30
0
0
SPLINE
5
440
100
AcDbEntity
8
0
100
AcDbSpline
70
4
71
3
72
8
73
4
74
0
42
0.000000001
43
0.0000000001
44
0.0000000001
40
0
40
0
40
0
40
0
40
1
40
1
40
1
40
1
41
1
41
1
41
1
41
1
10
-198.80489139926573
20
96.808229418883158
30
0
10
-198.80489139926573
20
98.05980869002255
30
0
10
-198.08882278549123
20
99.144056342652149
30
0
10
-197.04399989753827
20
99.673659506823412
30
0
0
SPLINE
5
441
100
AcDbEntity
8
0
100
AcDbSpline
70
4
71
3
72
8
73
4
74
0
42
0.000000001
43
0.0000000001
44
0.0000000001
40
0
40
0
40
0
40
0
40
1
40
1
40
1
40
1
41
1
41
1
41
1
41
1
10
-197.04399989753827
20
99.673659506823412
30
0
10
-196.42553008643986
20
101.65928583492986
30
0
10
-194.57320348378289
20
103.10079769914029
30
0
10
-192.38390335818704
20
103.10079769914029
30
0
0
SPLINE
5
442
100
AcDbEntity
8
0
100
AcDbSpline
70
4
71
3
72
8
73
4
74
0
42
0.000000001
43
0.0000000001
44
0.0000000001
40
0
40
0
40
0
40
0
40
1
40
1
40
1
40
1
41
1
41
1
41
1
41
1
10
-189.04498957682614
20
103.10079769914029
30
0
10
-186.98475144802305
20
103.10079769914029
30
0
10
-185.22270284380591
20
101.82404826461357
30
0
10
-184.50689239811436
20
100.01872343942252
30
0
0
LINE
5
443
100
AcDbEntity
8
0
100
AcDbLine
10
-184.50689239811436
20
100.01872343942252
30
0
11
-183.3945201006768
21
100.01872343942252
31
0
0
SPLINE
5
444
100
AcDbEntity
8
0
100
AcDbSpline
70
4
71
3
72
8
73
4
74
0
42
0.000000001
43
0.0000000001
44
0.0000000001
40
0
40
0
40
0
40
0
40
1
40
1
40
1
40
1
41
1
41
1
41
1
41
1
10
-183.39452010067686
20
100.01872343942252
30
0
10
-182.11789999513286
20
100.01872343942252
30
0
10
-181.0829644058885
20
98.983788829943165
30
0
10
-181.0829644058885
20
97.707167744634177
30
0
0
LINE
5
445
100
AcDbEntity
8
0
100
AcDbLine
10
-181.0829644058885
20
97.707167744634205
30
0
11
-181.0829644058885
21
89.359883291231853
31
0
0
SPLINE
5
446
100
AcDbEntity
8
0
100
AcDbSpline
70
4
71
3
72
8
73
4
74
0
42
0.000000001
43
0.0000000001
44
0.0000000001
40
0
40
0
40
0
40
0
40
1
40
1
40
1
40
1
41
1
41
1
41
1
41
1
10
-181.0829644058885
20
89.359883291231853
30
0
10
-181.0829644058885
20
88.083263185687883
30
0
10
-182.11789999513286
20
87.048327596443499
30
0
10
-183.39452010067686
20
87.048327596443499
30
0
0
LINE
5
447
100
AcDbEntity
8
0
100
AcDbLine
10
-183.39452010067686
20
87.048327596443499
30
0
11
-184.16503866560629
21
87.048327596443499
31
0
0
LINE
5
448
100
AcDbEntity
8
0
100
AcDbLine
10
-184.16503866560629
20
87.048327596443499
30
0
11
-184.16503866560629
21
84.865191662476747
31
0
0
SPLINE
5
449
100
AcDbEntity
8
0
100
AcDbSpline
70
4
71
3
72
8
73
4
74
0
42
0.000000001
43
0.0000000001
44
0.0000000001
40
0
40
0
40
0
40
0
40
1
40
1
40
1
40
1
41
1
41
1
41
1
41
1
10
-184.16503866560629
20
84.865191662476747
30
0
10
-184.16503866560629
20
83.588571556932777
30
0
10
-185.19997425485064
20
82.553635967688422
30
0
10
-186.47659436039461
20
82.553635967688422
30
0
0
SPLINE
5
450
100
AcDbEntity
8
0
100
AcDbSpline
70
4
71
3
72
8
73
4
74
0
42
0.000000001
43
0.0000000001
44
0.0000000001
40
0
40
0
40
0
40
0
40
1
40
1
40
1
40
1
41
1
41
1
41
1
41
1
10
-187.63237220778879
20
82.553635967688422
30
0
10
-188.90899329309778
20
82.553635967688422
30
0
10
-189.94392790257712
20
83.588571556932777
30
0
10
-189.94392790257712
20
84.865191662476747
30
0
0
LINE
5
451
100
AcDbEntity
8
0
100
AcDbLine
10
-189.94392790257712
20
84.865191662476747
30
0
11
-189.94392790257712
21
86.406228792335625
31
0
0
LINE
5
452
100
AcDbEntity
8
0
100
AcDbLine
10
-189.94392790257712
20
86.406228792335625
30
0
11
-191.48496503243604
21
86.406228792335639
31
0
0
LINE
5
453
100
AcDbEntity
8
0
100
AcDbLine
10
-191.48496503243604
20
86.406228792335639
30
0
11
-191.48496503243604
21
84.865191662476761
31
0
0
SPLINE
5
454
100
AcDbEntity
8
0
100
AcDbSpline
70
4
71
3
72
8
73
4
74
0
42
0.000000001
43
0.0000000001
44
0.0000000001
40
0
40
0
40
0
40
0
40
1
40
1
40
1
40
1
41
1
41
1
41
1
41
1
10
-191.48496503243604
20
84.865191662476747
30
0
10
-191.48496503243604
20
83.588571556932777
30
0
10
-192.51989964191537
20
82.553635967688422
30
0
10
-193.79652072722436
20
82.553635967688422
30
0
0
SPLINE
5
455
100
AcDbEntity
8
0
100
AcDbSpline
70
4
71
3
72
8
73
4
74
0
42
0.000000001
43
0.0000000001
44
0.0000000001
40
0
40
0
40
0
40
0
40
1
40
1
40
1
40
1
41
1
41
1
41
1
41
1
10
-194.95229857461851
20
82.553635967688422
30
0
10
-196.22891965992753
20
82.553635967688422
30
0
10
-197.26385426940686
20
83.588571556932777
30
0
10
-197.26385426940686
20
84.865191662476747
30
0
0
LINE
5
456
100
AcDbEntity
8
0
100
AcDbLine
10
-197.26385426940686
20
84.865191662476747
30
0
11
-197.26385426940686
21
94.065439947788605
31
0
0
ARC
5
457
100
AcDbEntity
8
0
100
AcDbCircle
10
183.39452010067686
20
89.359883291231853
30
0
40
0.77051856492943216
210
0
220
0
230
-1
100
AcDbArc
50
180
51
270
0
LINE
5
458
100
AcDbEntity
8
0
100
AcDbLine
10
-182.62400153574742
20
89.359883291231853
30
0
11
-182.62400153574737
21
97.707167744634177
31
0
0
ARC
5
459
100
AcDbEntity
8
0
100
AcDbCircle
10
183.39452010067686
20
97.707167744634177
30
0
40
0.77051856492944992
210
0
220
0
230
-1
100
AcDbArc
50
90
51
180
0
SPLINE
5
460
100
AcDbEntity
8
0
100
AcDbSpline
70
4
71
3
72
8
73
4
74
0
42
0.000000001
43
0.0000000001
44
0.0000000001
40
0
40
0
40
0
40
0
40
1
40
1
40
1
40
1
41
1
41
1
41
1
41
1
10
-184.17171674398887
20
98.477686309563637
30
0
10
-184.1672215820729
20
98.392672588581206
30
0
10
-184.16503866560629
20
98.30688779252732
30
0
10
-184.16503866560629
20
98.220846787920465
30
0
0
LINE
5
461
100
AcDbEntity
8
0
100
AcDbLine
10
-184.16503866560629
20
98.220846787920465
30
0
11
-184.16503866560629
21
88.589364726302406
31
0
0
SPLINE
5
462
100
AcDbEntity
8
0
100
AcDbSpline
70
4
71
3
72
8
73
4
74
0
42
0.000000001
43
0.0000000001
44
0.0000000001
40
0
40
0
40
0
40
0
40
1
40
1
40
1
40
1
41
1
41
1
41
1
41
1
10
-195.5943973787264
20
98.477686309563637
30
0
10
-196.51645130061587
20
98.477686309563637
30
0
10
-197.26385426940686
20
97.730283340772658
30
0
10
-197.26385426940686
20
96.808229418883158
30
0
0
SPLINE
5
463
100
AcDbEntity
8
0
100
AcDbSpline
70
4
71
3
72
8
73
4
74
0
42
0.000000001
43
0.0000000001
44
0.0000000001
40
0
40
0
40
0
40
0
40
1
40
1
40
1
40
1
41
1
41
1
41
1
41
1
10
-197.26385426940686
20
96.808229418883158
30
0
10
-197.26385426940686
20
95.886175496993644
30
0
10
-196.51645130061587
20
95.138772528202679
30
0
10
-195.5943973787264
20
95.138772528202679
30
0
0
LINE
5
464
100
AcDbEntity
8
0
100
AcDbLine
10
-195.5943973787264
20
95.138772528202679
30
0
11
-191.61338479325761
21
95.138772528202679
31
0
0
LINE
5
465
100
AcDbEntity
8
0
100
AcDbLine
10
-191.61338479325761
20
98.477686309563637
30
0
11
-195.5943973787264
21
98.477686309563637
31
0
0
ENDSEC
0
SECTION
2
OBJECTS
0
DICTIONARY
5
C
100
AcDbDictionary
3
ACAD_GROUP
350
D
3
ACAD_MLINESTYLE
350
17
0
DICTIONARY
5
D
100
AcDbDictionary
0
DICTIONARY
5
1A
330
C
100
AcDbDictionary
0
DICTIONARY
5
17
100
AcDbDictionary
0
ENDSEC
0
EOF
